<?xml version="1.0" encoding="UTF-8"?>
<!DOCTYPE svg PUBLIC "-//W3C//DTD SVG 1.1//EN" "http://www.w3.org/Graphics/SVG/1.1/DTD/svg11.dtd">
<svg xmlns="http://www.w3.org/2000/svg" version="1.1" width="569px" height="274px" style="shape-rendering:geometricPrecision; text-rendering:geometricPrecision; image-rendering:optimizeQuality; fill-rule:evenodd; clip-rule:evenodd" xmlns:xlink="http://www.w3.org/1999/xlink">
<g><path style="opacity:1" fill="#008DD5" d="M 558.5,6.5 C 563.94,6.42611 565.44,8.75944 563,13.5C 559.94,16.6135 556.44,19.1135 552.5,21C 534.579,29.5691 516.579,36.0691 498.5,40.5C 497.086,41.624 495.586,42.624 494,43.5C 492.853,42.5419 491.853,42.8753 491,44.5C 490.667,44.1667 490.333,43.8333 490,43.5C 486.866,45.7125 483.366,47.0458 479.5,47.5C 470.254,74.0845 458.421,99.4178 444,123.5C 441.869,128.727 440.035,134.06 438.5,139.5C 438.833,140.167 439.167,140.833 439.5,141.5C 444.477,135.022 449.644,128.688 455,122.5C 462.859,108.115 470.192,93.4485 477,78.5C 478.182,76.6431 479.849,75.6431 482,75.5C 484.782,77.6892 487.449,80.0225 490,82.5C 491.88,80.1405 494.38,78.8072 497.5,78.5C 499.705,80.5255 502.205,82.1922 505,83.5C 505.667,84.8333 506.333,86.1667 507,87.5C 508.552,97.0333 509.886,106.367 511,115.5C 513.027,123.921 516.027,131.921 520,139.5C 526.889,132.28 533.722,125.114 540.5,118C 543.289,118.753 545.623,120.42 547.5,123C 544.034,135.772 537.367,146.439 527.5,155C 520.628,157.985 515.128,156.485 511,150.5C 510.667,150.833 510.333,151.167 510,151.5C 506.678,149.855 505.178,147.188 505.5,143.5C 504.178,143.67 503.011,143.337 502,142.5C 500.725,140.283 499.725,137.949 499,135.5C 496.811,124.722 494.811,114.055 493,103.5C 483.611,119.547 473.444,135.047 462.5,150C 460.579,150.36 458.912,151.194 457.5,152.5C 455.441,151.433 453.608,150.1 452,148.5C 448.194,152.306 444.36,156.14 440.5,160C 436.772,162.643 432.772,163.477 428.5,162.5C 426.694,160.392 424.527,158.726 422,157.5C 418.863,164.768 413.363,167.935 405.5,167C 404.809,165.933 404.309,164.766 404,163.5C 399.826,170.516 395.159,177.183 390,183.5C 387.131,186.704 383.965,189.537 380.5,192C 376.5,193.565 372.833,193.398 369.5,191.5C 366.914,187.909 365.414,183.909 365,179.5C 359.848,185.984 353.514,190.984 346,194.5C 343,194.214 339.834,194.214 336.5,194.5C 336.448,191.063 335.281,188.063 333,185.5C 323.881,197.953 313.381,209.119 301.5,219C 297.814,221.343 293.814,222.843 289.5,223.5C 286.461,221.639 283.795,219.305 281.5,216.5C 272.932,225.569 263.599,233.736 253.5,241C 248.873,242.814 244.539,242.814 240.5,241C 239.643,240.311 238.977,239.478 238.5,238.5C 239.485,236.902 239.651,235.235 239,233.5C 235.908,237.264 232.241,240.264 228,242.5C 225.568,242.523 223.068,242.19 220.5,241.5C 219.573,239.887 218.739,238.221 218,236.5C 209.244,245.781 199.744,254.114 189.5,261.5C 188.575,260.359 187.741,260.359 187,261.5C 186.333,260.833 185.667,260.167 185,259.5C 184.647,256.461 183.48,253.795 181.5,251.5C 212.298,208.849 244.131,166.849 277,125.5C 277.591,124.517 277.257,123.85 276,123.5C 199.354,147.93 124.02,173.93 50,201.5C 48.0886,201.745 46.0886,201.745 44,201.5C 42.8289,202.893 41.3289,203.727 39.5,204C 29.348,206.913 19.1814,209.746 9,212.5C 4.68713,210.512 4.52046,208.012 8.5,205C 26.9143,196.461 45.581,188.461 64.5,181C 96.982,169.175 129.315,157.175 161.5,145C 206.717,130.354 252.05,115.688 297.5,101C 304.561,91.2477 312.561,82.2477 321.5,74C 324.915,73.7336 326.915,75.4002 327.5,79C 323.112,83.7178 319.112,88.7178 315.5,94C 343.026,85.0527 370.026,75.3861 396.5,65C 399.595,58.5739 404.095,53.4072 410,49.5C 411.5,51 413,52.5 414.5,54C 413.833,55.3333 413.167,56.6667 412.5,58C 413,58.1667 413.5,58.3333 414,58.5C 432.192,50.8799 450.692,44.0466 469.5,38C 474.627,30.1717 478.96,21.8384 482.5,13C 485.054,12.4421 487.054,13.2754 488.5,15.5C 487.22,17.7016 487.22,19.8683 488.5,22C 487.818,25.4204 486.818,28.7537 485.5,32C 508.112,26.2426 530.445,19.2426 552.5,11C 555.106,10.2082 557.106,8.70819 558.5,6.5 Z M 384.5,165.5 C 385.88,159.711 387.547,154.378 389.5,149.5C 389.392,148.558 389.059,147.725 388.5,147C 385.735,145.871 383.235,144.371 381,142.5C 379.374,143.289 377.874,144.289 376.5,145.5C 371.25,153.587 365.417,161.253 359,168.5C 355.986,170.519 353.32,172.852 351,175.5C 351.623,169.63 353.457,164.13 356.5,159C 356.167,158.667 355.833,158.333 355.5,158C 374.278,132.033 391.278,104.866 406.5,76.5C 424.935,69.3765 443.435,61.7098 462,53.5C 457.681,63.1442 453.014,72.8109 448,82.5C 440.471,103.595 429.971,122.595 416.5,139.5C 414.083,136.917 411.249,134.917 408,133.5C 406.915,134.293 405.748,134.96 404.5,135.5C 398.899,143.034 394.066,151.034 390,159.5C 387.932,161.396 386.099,163.396 384.5,165.5 Z M 262.5,213.5 C 261.964,210.445 261.131,207.445 260,204.5C 257.12,202.714 254.286,202.547 251.5,204C 248.251,207.42 244.917,210.587 241.5,213.5C 244.745,209.062 247.412,204.229 249.5,199C 247.292,198.064 245.958,196.398 245.5,194C 244.167,193.667 242.833,193.333 241.5,193C 260.935,166.782 280.602,140.782 300.5,115C 328.11,106.073 355.443,96.24 382.5,85.5C 382.833,85.8333 383.167,86.1667 383.5,86.5C 373.891,101.385 365.058,116.718 357,132.5C 340.394,154.438 323.061,175.771 305,196.5C 304.935,193.802 306.102,191.636 308.5,190C 308.167,189.667 307.833,189.333 307.5,189C 310.698,184.27 313.365,179.27 315.5,174C 313.513,171.524 312.513,168.69 312.5,165.5C 310.131,165.149 307.797,164.982 305.5,165C 292.207,182.085 277.873,198.252 262.5,213.5 Z"/></g>
<g><path style="opacity:1" fill="#008DD5" d="M 308.5,131.5 C 313.464,132.878 314.631,135.878 312,140.5C 310.309,144.213 307.475,145.379 303.5,144C 302.158,141.985 301.658,139.818 302,137.5C 303.872,135.153 306.039,133.153 308.5,131.5 Z"/></g>
</svg>
